<svg id="Ebene_1" data-name="Ebene 1" xmlns="http://www.w3.org/2000/svg" xmlns:xlink="http://www.w3.org/1999/xlink" viewBox="0 0 373.41 662.95"><defs><style>.cls-1{fill:url(#Unbenannter_Verlauf_4);}.cls-2{fill:url(#Unbenannter_Verlauf_4-2);}.cls-3{fill:url(#Unbenannter_Verlauf_4-3);}.cls-4{fill:url(#Unbenannter_Verlauf_4-4);}.cls-5{fill:url(#Unbenannter_Verlauf_4-5);}.cls-6{fill:url(#Unbenannter_Verlauf_4-6);}.cls-7{fill:url(#Unbenannter_Verlauf_4-7);}.cls-8{fill:url(#Unbenannter_Verlauf_4-8);}</style><linearGradient id="Unbenannter_Verlauf_4" x1="259.4" y1="297.76" x2="427.85" y2="297.76" gradientTransform="translate(-110.97 -31.59) rotate(0.89)" gradientUnits="userSpaceOnUse"><stop offset="0" stop-color="#ddd"/><stop offset="1" stop-color="#ec5c56"/></linearGradient><linearGradient id="Unbenannter_Verlauf_4-2" x1="115.15" y1="420.48" x2="312.92" y2="420.48" xlink:href="#Unbenannter_Verlauf_4"/><linearGradient id="Unbenannter_Verlauf_4-3" x1="152.26" y1="593.85" x2="288.77" y2="593.85" xlink:href="#Unbenannter_Verlauf_4"/><linearGradient id="Unbenannter_Verlauf_4-4" x1="365.17" y1="482.74" x2="490.54" y2="482.74" xlink:href="#Unbenannter_Verlauf_4"/><linearGradient id="Unbenannter_Verlauf_4-5" x1="262.72" y1="588.42" x2="353.22" y2="588.42" xlink:href="#Unbenannter_Verlauf_4"/><linearGradient id="Unbenannter_Verlauf_4-6" x1="353.27" y1="613.22" x2="427.85" y2="613.22" xlink:href="#Unbenannter_Verlauf_4"/><linearGradient id="Unbenannter_Verlauf_4-7" x1="324.85" y1="664.09" x2="352.39" y2="664.09" xlink:href="#Unbenannter_Verlauf_4"/><linearGradient id="Unbenannter_Verlauf_4-8" x1="309.82" y1="613.22" x2="387.86" y2="613.22" gradientTransform="translate(-78.47 -20.2) rotate(0.89)" xlink:href="#Unbenannter_Verlauf_4"/></defs><title>lightning</title><polygon class="cls-1" points="249.44 0 242.34 287.39 144.57 218.59 206.77 444.29 224.6 509.04 231.9 535.47 240.3 543.49 239.11 534.85 210.53 327.15 310.23 399.32 249.44 0"/><polygon class="cls-2" points="8.39 391.45 172.92 531.35 189.74 545.59 192.99 546.18 180.83 532.43 87.84 427.08 176.34 431.62 0 238.17 94.45 394.88 8.39 391.45"/><polygon class="cls-3" points="158.58 584.21 167.16 584 168.26 583.33 161.17 582.48 106.83 575.9 133.76 554.31 32.35 543.68 100.41 564.82 74.48 586.11 158.58 584.21"/><polygon class="cls-4" points="373.41 368.51 304.62 470.91 270.29 418.13 246.52 540.32 245.24 546.99 252.72 544.97 257.13 533.51 279.35 476.31 313.97 530.86 373.41 368.51"/><polygon class="cls-5" points="168.2 604.51 196.6 587.22 176.23 563.7 192.37 566.52 195.63 567.11 210.16 569.69 212.45 536.5 216.36 539.99 225.03 547.74 233.16 554.99 223.55 539.14 208.19 513.82 205.26 509.01 201 555.72 183.46 553.36 175.55 552.27 151.75 549.06 181.03 585.63 141.75 613.64 197.88 611.46 168.2 604.51"/><polygon class="cls-6" points="272.8 577.04 284.77 534.14 269.07 544.24 258.47 551.04 241.25 562.14 257.18 557.72 264.66 555.7 269.72 554.27 257.36 584.41 284.21 590.72 259.25 603.68 267.64 626.32 232.29 614.78 281.49 641.53 270.43 608.78 307.32 586.58 272.8 577.04"/><polygon class="cls-7" points="206.64 612.04 206.22 618.09 203.11 662.95 231.33 619.77 212.98 634.81 206.64 612.04"/><path class="cls-8" d="M281.89,608.85l17.81-4-17.1-9.54,10.26-19.33L267.31,583l-14.86-20.88-1.86,27.07-22.87-4.07,13,15.57-19.2,11.69L246,619.64l3.35,14.66,9.73-14.13,32,7.36Zm-6.19,7.36-17.59-3.67-8.62,11.68.22-14s-11.94.93-13.05.91S248,603.48,248,603.48L243.61,596l10.8.17,2-11.89,5.46,9,16-6.46-9.83,12,13.06,2L266.92,606Z" transform="translate(-32.5 -11.39)"/></svg>