<svg id="Ebene_1" data-name="Ebene 1" xmlns="http://www.w3.org/2000/svg" xmlns:xlink="http://www.w3.org/1999/xlink" viewBox="0 0 808.41 450"><defs><style>.cls-1{fill:#ddd;}.cls-1,.cls-10,.cls-11,.cls-12,.cls-13,.cls-14,.cls-16,.cls-17,.cls-3,.cls-4,.cls-5,.cls-8,.cls-9{stroke:#ddd;stroke-miterlimit:10;}.cls-2{fill:url(#Unbenannter_Verlauf_2);}.cls-10,.cls-11,.cls-12,.cls-13,.cls-14,.cls-16,.cls-17,.cls-3,.cls-4,.cls-5,.cls-8,.cls-9{stroke-width:3px;}.cls-3{fill:url(#Unbenannter_Verlauf_8);}.cls-4{fill:url(#Unbenannter_Verlauf_8-2);}.cls-5{fill:url(#Unbenannter_Verlauf_8-3);}.cls-6{fill:url(#Unbenannter_Verlauf_3);}.cls-12,.cls-7{fill:none;}.cls-8{fill:url(#Unbenannter_Verlauf_8-4);}.cls-9{fill:url(#Unbenannter_Verlauf_8-5);}.cls-10,.cls-15{fill:#ec5c56;}.cls-11{fill:url(#Unbenannter_Verlauf_8-6);}.cls-13{fill:url(#Unbenannter_Verlauf_8-7);}.cls-14{fill:url(#Unbenannter_Verlauf_8-8);}.cls-16{fill:url(#Unbenannter_Verlauf_8-9);}.cls-17{fill:url(#Unbenannter_Verlauf_8-10);}</style><linearGradient id="Unbenannter_Verlauf_2" x1="463.2" y1="272.5" x2="758.85" y2="272.5" gradientTransform="matrix(1, 0, 0, -1, -9.24, 448)" gradientUnits="userSpaceOnUse"><stop offset="0" stop-color="#ddd"/><stop offset="1" stop-color="#ec5c56"/></linearGradient><linearGradient id="Unbenannter_Verlauf_8" x1="405.37" y1="407.13" x2="805.37" y2="407.13" gradientUnits="userSpaceOnUse"><stop offset="0" stop-color="#ec5c56"/><stop offset="1" stop-color="#ddd"/></linearGradient><linearGradient id="Unbenannter_Verlauf_8-2" x1="170.37" y1="327.25" x2="242.37" y2="327.25" xlink:href="#Unbenannter_Verlauf_8"/><linearGradient id="Unbenannter_Verlauf_8-3" x1="2.37" y1="383.13" x2="402.37" y2="383.13" xlink:href="#Unbenannter_Verlauf_8"/><linearGradient id="Unbenannter_Verlauf_3" x1="580.61" y1="41.25" x2="655.61" y2="41.25" gradientTransform="matrix(1, 0, 0, -1, -9.24, 448)" gradientUnits="userSpaceOnUse"><stop offset="0" stop-color="#ddd"/><stop offset="1" stop-color="#816452"/></linearGradient><linearGradient id="Unbenannter_Verlauf_8-4" x1="652.61" y1="215.54" x2="718.62" y2="215.54" xlink:href="#Unbenannter_Verlauf_8"/><linearGradient id="Unbenannter_Verlauf_8-5" x1="516.5" y1="215.54" x2="582.51" y2="215.54" xlink:href="#Unbenannter_Verlauf_8"/><linearGradient id="Unbenannter_Verlauf_8-6" x1="203.04" y1="302.95" x2="203.04" y2="1.5" xlink:href="#Unbenannter_Verlauf_8"/><linearGradient id="Unbenannter_Verlauf_8-7" x1="117.99" y1="193.14" x2="306.58" y2="193.14" xlink:href="#Unbenannter_Verlauf_8"/><linearGradient id="Unbenannter_Verlauf_8-8" x1="161.34" y1="139.14" x2="244.75" y2="139.14" xlink:href="#Unbenannter_Verlauf_8"/><linearGradient id="Unbenannter_Verlauf_8-9" x1="208.92" y1="284.3" x2="132.01" y2="284.3" xlink:href="#Unbenannter_Verlauf_8"/><linearGradient id="Unbenannter_Verlauf_8-10" x1="214.08" y1="284.3" x2="291" y2="284.3" xlink:href="#Unbenannter_Verlauf_8"/></defs><title>Party</title><rect class="cls-1" x="424.78" y="39" width="354" height="273" rx="15" ry="15"/><rect class="cls-2" x="453.96" y="61.5" width="295.65" height="228" rx="15" ry="15"/><rect class="cls-1" x="573.37" y="308.75" width="72" height="135"/><polygon class="cls-3" points="744.37 446.5 464.37 447.5 405.37 366.75 805.37 366.75 744.37 446.5"/><rect class="cls-4" x="170.37" y="259.75" width="72" height="135"/><polygon class="cls-5" points="344.37 447.5 64.37 448.5 2.37 317.75 402.37 317.75 344.37 447.5"/><rect class="cls-6" x="571.37" y="380.75" width="75" height="52" rx="15" ry="15"/><line class="cls-7" x1="645.37" y1="179.75" x2="679.87" y2="145.25"/><path class="cls-8" d="M685.61,198.75h33a33,33,0,0,1-66,1.15Z" transform="translate(-9.24 -54)"/><path class="cls-9" d="M549.5,198.75h33a33,33,0,0,1-66,1.15Z" transform="translate(-9.24 -54)"/><path class="cls-10" d="M549.62,255.1a104.65,104.65,0,0,0,148,0h0l16.26,16.26a127.65,127.65,0,0,1-180.52,0h0Z" transform="translate(-9.24 -54)"/><path class="cls-11" d="M92.54,1.5h221a24.21,24.21,0,0,1,24.21,24.21V168.24A134.72,134.72,0,0,1,203,303h0A134.72,134.72,0,0,1,68.33,168.24V25.71A24.21,24.21,0,0,1,92.54,1.5Z"/><line class="cls-12" x1="202.77" y1="73.9" x2="202.77" y2="18.29"/><line class="cls-12" x1="231.78" y1="78.64" x2="250.52" y2="45.19"/><line class="cls-12" x1="253.09" y1="90.45" x2="278.33" y2="75.41"/><line class="cls-12" x1="149.17" y1="92.52" x2="123.53" y2="78.18"/><line class="cls-12" x1="172.98" y1="80.2" x2="153.38" y2="47.25"/><path class="cls-13" d="M306.58,193.14s-50.35,54.09-92.38,54.09S118,193.14,118,193.14s54.18-54.09,96.21-54.09S306.58,193.14,306.58,193.14Z" transform="translate(-9.24 -54)"/><circle class="cls-14" cx="203.04" cy="139.14" r="41.71"/><circle class="cls-15" cx="203.04" cy="139.14" r="21.06"/><path class="cls-16" d="M208.17,298.74A128.49,128.49,0,0,1,132,271.34c28.39,10,55.81,7.6,76.92-1.49Z" transform="translate(-9.24 -54)"/><path class="cls-17" d="M214.83,298.74A128.49,128.49,0,0,0,291,271.34c-28.39,10-55.81,7.6-76.92-1.49Z" transform="translate(-9.24 -54)"/><path class="cls-10" d="M279.4,307.14a153.39,153.39,0,0,1-123.52,5.42A138.75,138.75,0,0,1,132,277.23a133.57,133.57,0,0,0,163.79-3.72A139.18,139.18,0,0,1,279.4,307.14Z" transform="translate(-9.24 -54)"/></svg>